# File created by Blade
# Date/Time:  Fri Jan 16 15:45:48 2015
# Frame Rate: 120.000 fps
#------------------------------------------------------
:FULLY-SPECIFIED
:DEGREES
3443
root -6.054396 35.087195 -9.146588 -0.496631 14.508175 -2.989567
Spine -10.297685 -0.380540 2.091522
Head 11.659746 -34.705337 -10.897875
LeftShoulder -23.244419 13.353783 -19.255889
LeftArm 20.215011 3.024370 -64.735447
LeftForeArm 14.660609 -0.000000 12.430705
LeftHand 1.972199 -0.000000 -6.841500
LeftHandThumb1 -26.253704 0.000000 33.147579
RightShoulder -11.776652 24.569884 -48.962808
RightArm 54.520540 57.378208 18.990643
RightForeArm 17.879187 -0.000000 95.528514
RightHand 9.515950 -0.000000 -7.297280
RightHandThumb1 -24.326973 -0.000000 -32.862282
LeftUpLeg 7.092824 0.271809 5.402650
LeftLeg -8.682055 -0.000000 0.000000
LeftFoot -13.103753 21.545140 -9.010098
LeftToeBase 22.338344 -0.000000 -0.000000
RightUpLeg 11.005997 -14.297813 1.320204
RightLeg -4.694415 -0.000000 0.000000
RightFoot -9.970781 -35.306700 6.672476
RightToeBase 13.866387 -0.000000 -0.000000
3444
root -6.058968 35.088232 -9.146053 -0.538995 14.488966 -2.988124
Spine -10.231407 -0.367555 2.054822
Head 11.637578 -34.887992 -10.929196
LeftShoulder -23.197466 13.320360 -19.331254
LeftArm 20.217824 2.755591 -64.784225
LeftForeArm 14.791868 -0.000000 12.335824
LeftHand 2.024571 -0.000000 -6.602410
LeftHandThumb1 -26.253704 0.000000 33.147579
RightShoulder -11.706520 24.835907 -48.804097
RightArm 54.876016 57.542003 19.916681
RightForeArm 17.988561 -0.000000 95.703906
RightHand 9.512316 -0.000000 -7.838313
RightHandThumb1 -24.326973 -0.000000 -32.862282
LeftUpLeg 7.130483 0.261108 5.409986
LeftLeg -8.661073 -0.000000 0.000000
LeftFoot -13.115413 21.543272 -9.048219
LeftToeBase 22.338765 -0.000000 -0.000000
RightUpLeg 11.029492 -14.262831 1.321116
RightLeg -4.661790 -0.000000 0.000000
RightFoot -9.985308 -35.332031 6.660022
RightToeBase 13.865302 -0.000000 -0.000000
3445
root -6.063367 35.089271 -9.146599 -0.589431 14.457065 -2.993822
Spine -10.153745 -0.314729 2.024614
Head 11.645299 -35.106639 -10.979799
LeftShoulder -23.104901 13.309756 -19.367997
LeftArm 20.217731 2.516815 -64.881014
LeftForeArm 14.546805 0.000000 12.202186
LeftHand 2.022491 -0.000000 -6.774159
LeftHandThumb1 -26.253704 0.000000 33.147579
RightShoulder -11.585382 25.097458 -48.578433
RightArm 55.357930 57.843915 20.986638
RightForeArm 18.311484 -0.000000 95.836985
RightHand 9.582680 -0.000000 -8.457474
RightHandThumb1 -24.326973 -0.000000 -32.862282
LeftUpLeg 7.165768 0.315299 5.426696
LeftLeg -8.635345 -0.000000 0.000000
LeftFoot -13.142946 21.535125 -8.952247
LeftToeBase 22.552679 -0.000000 -0.000000
RightUpLeg 11.046801 -14.218716 1.327523
RightLeg -4.609987 -0.000000 0.000000
RightFoot -10.026091 -35.348042 6.693863
RightToeBase 13.846247 -0.000000 -0.000000
3446
root -6.067960 35.090013 -9.147693 -0.637608 14.421174 -3.002959
Spine -10.080633 -0.236134 1.989305
Head 11.684959 -35.342012 -11.024262
LeftShoulder -22.990662 13.307098 -19.396119
LeftArm 20.220719 2.200245 -65.023426
LeftForeArm 14.706183 0.000000 12.074739
LeftHand 1.920309 -0.000000 -6.986855
LeftHandThumb1 -26.253704 0.000000 33.147579
RightShoulder -11.438914 25.185907 -48.273499
RightArm 56.120670 58.325822 22.326614
RightForeArm 18.416610 -0.000000 95.961632
RightHand 9.532324 0.000000 -9.253072
RightHandThumb1 -24.326973 -0.000000 -32.862282
LeftUpLeg 7.205187 0.346561 5.442655
LeftLeg -8.614944 -0.000000 0.000000
LeftFoot -13.155319 21.528530 -8.957062
LeftToeBase 22.571270 -0.000000 -0.000000
RightUpLeg 11.054975 -14.175223 1.335561
RightLeg -4.545750 -0.000000 0.000000
RightFoot -10.053017 -35.358692 6.694343
RightToeBase 13.874102 -0.000000 -0.000000
3447
root -6.073146 35.091100 -9.150456 -0.682194 14.402553 -3.013853
Spine -10.022426 -0.147692 1.963861
Head 11.784032 -35.799038 -11.267389
LeftShoulder -22.824077 13.318173 -19.405101
LeftArm 20.196235 2.071423 -65.072187
LeftForeArm 14.831925 -0.000000 11.989189
LeftHand 2.027767 0.000000 -6.247206
LeftHandThumb1 -26.253704 0.000000 33.147579
RightShoulder -11.241020 25.340986 -47.971990
RightArm 56.810318 58.858427 23.648979
RightForeArm 18.874819 -0.000000 96.078376
RightHand 9.613986 -0.000000 -9.783161
RightHandThumb1 -24.326973 -0.000000 -32.862282
LeftUpLeg 7.225136 0.340762 5.460231
LeftLeg -8.573533 -0.000000 0.000000
LeftFoot -13.174844 21.542524 -8.962912
LeftToeBase 22.541038 -0.000000 -0.000000
RightUpLeg 11.052398 -14.146352 1.346539
RightLeg -4.471782 -0.000000 0.000000
RightFoot -10.088386 -35.369290 6.715384
RightToeBase 13.833924 -0.000000 -0.000000
3448
root -6.078830 35.091792 -9.154315 -0.715490 14.365980 -3.033656
Spine -9.965653 -0.018461 1.945787
Head 11.865300 -36.090694 -11.371424
LeftShoulder -22.659350 13.331748 -19.401826
LeftArm 20.206814 2.007137 -65.132367
LeftForeArm 14.831045 -0.000000 11.855447
LeftHand 2.111455 -0.000000 -6.099810
LeftHandThumb1 -26.253704 0.000000 33.147579
RightShoulder -11.098905 25.553597 -47.748218
RightArm 57.763762 59.322782 25.354146
RightForeArm 19.161407 -0.000000 96.257208
RightHand 9.462016 -0.000000 -10.444091
RightHandThumb1 -24.326973 -0.000000 -32.862282
LeftUpLeg 7.239145 0.382515 5.485964
LeftLeg -8.548134 -0.000000 0.000000
LeftFoot -13.188004 21.544654 -8.933790
LeftToeBase 22.562759 -0.000000 -0.000000
RightUpLeg 11.029520 -14.079106 1.374055
RightLeg -4.393094 -0.000000 0.000000
RightFoot -10.115657 -35.393978 6.717045
RightToeBase 13.853112 -0.000000 -0.000000
3449
root -6.084146 35.092606 -9.158310 -0.749191 14.345747 -3.051174
Spine -9.916732 0.102636 1.923563
Head 12.024836 -36.341982 -11.518135
LeftShoulder -22.477544 13.331708 -19.337343
LeftArm 20.169308 2.117887 -65.210703
LeftForeArm 14.286869 -0.000000 11.729387
LeftHand 2.017468 0.000000 -7.126591
LeftHandThumb1 -26.253704 0.000000 33.147579
RightShoulder -10.892544 25.774838 -47.403357
RightArm 58.862212 59.860536 27.105327
RightForeArm 19.636597 -0.000000 96.382012
RightHand 9.249187 -0.000000 -11.469717
RightHandThumb1 -24.326973 -0.000000 -32.862282
LeftUpLeg 7.251124 0.372840 5.505398
LeftLeg -8.513839 -0.000000 0.000000
LeftFoot -13.201402 21.559533 -9.018996
LeftToeBase 22.417338 -0.000000 -0.000000
RightUpLeg 11.009894 -14.060196 1.393715
RightLeg -4.317815 -0.000000 0.000000
RightFoot -10.153582 -35.396241 6.735734
RightToeBase 13.858587 -0.000000 -0.000000
3450
root -6.090174 35.093869 -9.162604 -0.773133 14.318867 -3.085594
Spine -9.883868 0.252729 1.935520
Head 12.134764 -36.595072 -11.673647
LeftShoulder -22.298696 13.323294 -19.302505
LeftArm 20.140536 2.171724 -65.279436
LeftForeArm 14.245310 0.000000 11.636618
LeftHand 1.929565 -0.000000 -7.183246
LeftHandThumb1 -26.253704 0.000000 33.147579
RightShoulder -10.626329 25.694649 -46.977089
RightArm 60.155824 60.676861 28.892632
RightForeArm 20.100113 -0.000000 96.440840
RightHand 9.186453 -0.000000 -12.837692
RightHandThumb1 -24.326973 -0.000000 -32.862282
LeftUpLeg 7.254558 0.394771 5.544845
LeftLeg -8.498342 -0.000000 0.000000
LeftFoot -13.214023 21.575161 -9.016377
LeftToeBase 22.405063 -0.000000 -0.000000
RightUpLeg 10.977576 -14.043919 1.430860
RightLeg -4.244207 -0.000000 0.000000
RightFoot -10.183590 -35.363748 6.784282
RightToeBase 13.788879 -0.000000 -0.000000
3451
root -6.096031 35.094944 -9.167204 -0.782142 14.289127 -3.116858
Spine -9.872688 0.435198 1.932617
Head 12.266770 -36.894980 -11.830947
LeftShoulder -22.098540 13.337625 -19.265679
LeftArm 20.127386 2.000316 -65.422656
LeftForeArm 14.655789 0.000000 11.546068
LeftHand 1.917067 -0.000000 -7.123249
LeftHandThumb1 -26.253704 0.000000 33.147579
RightShoulder -10.415735 26.014342 -46.705621
RightArm 61.408690 61.232445 30.921514
RightForeArm 21.216708 -0.000000 96.553731
RightHand 9.326749 -0.000000 -13.216526
RightHandThumb1 -24.326973 -0.000000 -32.862282
LeftUpLeg 7.250403 0.410185 5.582399
LeftLeg -8.491424 -0.000000 0.000000
LeftFoot -13.223966 21.591531 -9.009985
LeftToeBase 22.416254 -0.000000 -0.000000
RightUpLeg 10.931254 -14.056697 1.462775
RightLeg -4.171367 -0.000000 0.000000
RightFoot -10.213363 -35.311868 6.814608
RightToeBase 13.780354 -0.000000 -0.000000
